HIERARCHY
ROOT root
{
	OFFSET 0.000000 0.000000 0.000000
	CHANNELS 6 Xposition Yposition Zposition Zrotation Yrotation Xrotation
	JOINT lhip
	{
		OFFSET 0.058581 -0.082280 -0.017664
		CHANNELS 3 Zrotation Yrotation Xrotation
		JOINT lknee
		{
			OFFSET 0.043451 -0.386469 0.008037
			CHANNELS 3 Zrotation Yrotation Xrotation
			JOINT lankle
			{
				OFFSET -0.014790 -0.426874 -0.037428
				CHANNELS 3 Zrotation Yrotation Xrotation
				JOINT ltoe
				{
					OFFSET 0.041054 -0.060286 0.122042
					CHANNELS 3 Zrotation Yrotation Xrotation
					End Site
					{
						OFFSET 0.000000 0.000000 0.000000
					}
				}
			}
		}
	}
	JOINT rhip
	{
		OFFSET -0.060310 -0.090513 -0.013543
		CHANNELS 3 Zrotation Yrotation Xrotation
		JOINT rknee
		{
			OFFSET -0.043257 -0.383688 -0.004843
			CHANNELS 3 Zrotation Yrotation Xrotation
			JOINT rankle
			{
				OFFSET 0.019056 -0.420046 -0.034562
				CHANNELS 3 Zrotation Yrotation Xrotation
				JOINT rtoe
				{
					OFFSET -0.034840 -0.062106 0.130323
					CHANNELS 3 Zrotation Yrotation Xrotation
					End Site
					{
						OFFSET 0.000000 0.000000 0.000000
					}
				}
			}
		}
	}
	JOINT lowerback
	{
		OFFSET 0.004439 0.124404 -0.038385
		CHANNELS 3 Zrotation Yrotation Xrotation
		JOINT upperback
		{
			OFFSET 0.004488 0.137956 0.026820
			CHANNELS 3 Zrotation Yrotation Xrotation
			JOINT chest
			{
				OFFSET -0.002265 0.056032 0.002855
				CHANNELS 3 Zrotation Yrotation Xrotation
				JOINT lowerneck
				{
					OFFSET -0.013390 0.211636 -0.033468
					CHANNELS 3 Zrotation Yrotation Xrotation
					JOINT upperneck
					{
						OFFSET 0.010113 0.088937 0.050410
						CHANNELS 3 Zrotation Yrotation Xrotation
						End Site
						{
							OFFSET 0.000000 0.000000 0.000000
						}
					}
				}
				JOINT lclavicle
				{
					OFFSET 0.071702 0.114000 -0.018898
					CHANNELS 3 Zrotation Yrotation Xrotation
					JOINT lshoulder
					{
						OFFSET 0.122921 0.045205 -0.019046
						CHANNELS 3 Zrotation Yrotation Xrotation
						JOINT lelbow
						{
							OFFSET 0.255332 -0.015649 -0.022946
							CHANNELS 3 Zrotation Yrotation Xrotation
							JOINT lwrist
							{
								OFFSET 0.265709 0.012698 -0.007375
								CHANNELS 3 Zrotation Yrotation Xrotation
								End Site
								{
									OFFSET 0.000000 0.000000 0.000000
								}
							}
						}
					}
				}
				JOINT rclavicle
				{
					OFFSET -0.082954 0.112472 -0.023707
					CHANNELS 3 Zrotation Yrotation Xrotation
					JOINT rshoulder
					{
						OFFSET -0.113228 0.046853 -0.008472
						CHANNELS 3 Zrotation Yrotation Xrotation
						JOINT relbow
						{
							OFFSET -0.260127 -0.014369 -0.031269
							CHANNELS 3 Zrotation Yrotation Xrotation
							JOINT rwrist
							{
								OFFSET -0.269108 0.006794 -0.006027
								CHANNELS 3 Zrotation Yrotation Xrotation
								End Site
								{
									OFFSET 0.000000 0.000000 0.000000
								}
							}
						}
					}
				}
			}
		}
	}
}
MOTION
Frames: 5
Frame Time: 0.033333
-2.072133 0.631160 1.006242 21.111463 -3.498637 85.306491 -1.529484 -12.599187 -11.185182 -4.542174 -26.522057 10.879975 0.821823 7.757488 -17.578192 0.000000 -0.000000 0.000000 0.345846 -0.457009 6.681086 -1.789586 7.281989 9.502554 4.127403 -10.186024 -19.894032 0.000000 -0.000000 0.000000 0.536309 11.360361 5.098419 -2.619584 5.956471 6.637747 -0.469980 8.391975 -1.602559 -5.770212 21.319997 -12.695307 -7.625787 10.931807 -27.653831 2.160228 18.122520 -5.894333 -40.472047 13.848654 0.506836 10.109320 -25.246182 -6.107137 -6.774386 -6.171292 -1.783646 7.921193 16.484337 6.866909 24.234256 44.133861 -1.150332 -0.017546 45.634045 8.946209 -9.305577 12.352994 1.136115 
-2.076185 0.642457 1.005045 26.099652 -3.594759 85.685570 -1.569289 -10.672652 -13.010345 -3.254949 -21.873546 9.631759 1.501151 9.700793 -17.497628 0.000000 -0.000000 0.000000 0.938416 -1.127887 5.699853 -2.388890 5.147359 9.423094 3.325412 -11.512568 -19.519218 0.000000 -0.000000 0.000000 1.374181 10.721997 5.778009 -2.143095 5.543888 5.186624 0.034171 7.916147 -0.164296 -4.530447 20.420078 -12.513894 -7.922216 11.156071 -27.419990 1.391771 18.532257 -5.443159 -44.732406 17.917895 0.934358 8.685691 -25.928969 -2.133447 -5.416297 -6.610682 -2.985259 7.660763 15.565557 5.886462 25.773857 43.035146 0.702229 5.616238 51.195763 15.247179 -11.841844 12.257662 0.709426 
-2.078841 0.654013 1.004218 31.814734 -3.957695 85.788190 -2.296232 -8.803685 -14.773850 -2.736409 -15.889706 9.896818 2.680294 11.652574 -15.951171 0.000000 -0.000000 0.000000 0.796649 -2.331565 4.863153 -2.764573 2.365757 9.527683 2.773823 -12.584311 -19.483365 0.000000 -0.000000 0.000000 2.109057 10.511974 6.256690 -1.802292 5.158700 4.498619 0.591414 7.194838 0.525095 -3.241762 19.192136 -11.811507 -8.132302 11.128788 -26.958995 -0.049920 17.835549 -5.271618 -49.508290 20.527466 -0.255458 8.451325 -24.001375 -1.108776 -6.511615 -5.889710 -1.803181 7.901170 14.403500 5.461086 26.594447 40.078951 0.889544 12.545938 56.376145 21.982836 -9.089070 13.247126 3.570287 
-2.082496 0.665071 1.004243 37.995865 -4.462811 85.986158 -3.455078 -7.766729 -16.135009 -2.034454 -9.958810 11.489363 3.760336 13.875598 -15.451240 0.000000 -0.000000 0.000000 0.793650 -3.077018 3.619116 -3.548613 -0.899481 10.216351 2.274059 -14.680075 -20.367903 0.000000 -0.000000 0.000000 2.485094 10.237684 7.124777 -1.637566 4.889844 3.296789 0.803549 6.254653 1.059462 -1.805022 17.450369 -12.249716 -7.857858 10.727007 -26.452177 -2.013694 18.681399 -6.265081 -53.445674 21.108641 0.256604 9.032040 -20.776393 -0.834240 -8.328014 -5.127508 -1.021701 8.494821 12.142943 3.951198 30.345660 36.956007 4.606153 16.549843 59.724560 27.809604 -6.555751 14.394972 4.047885 
-2.085982 0.674642 1.004704 44.367716 -4.989426 85.735480 -4.292988 -6.801160 -16.714507 -2.288147 -4.990931 14.784406 4.031379 16.056393 -15.499254 0.000000 -0.000000 0.000000 0.470989 -3.867302 3.414328 -3.847081 -3.905478 9.834815 2.459976 -16.508581 -20.222619 0.000000 -0.000000 0.000000 2.578506 10.405417 7.651226 -1.365792 5.034551 2.616148 1.172621 5.275679 1.753118 -0.332561 15.262434 -12.000501 -7.284401 9.450081 -26.893282 -4.135756 18.484155 -6.805914 -57.838586 20.421584 1.091658 10.165291 -17.678836 -0.350298 -9.361024 -3.543295 0.366118 8.710902 9.595552 2.803368 34.114833 31.570087 7.244028 19.670560 62.793942 32.032114 -5.614235 13.633640 3.173884 
